<svg xmlns="http://www.w3.org/2000/svg" width="337" height="60" viewBox="0 0 337 60">
  <defs>
    <style>
      .cls-1 {
        fill: #fff;
        fill-rule: evenodd;
      }
    </style>
  </defs>
  <path class="cls-1" d="M318.441,21.6a3.482,3.482,0,0,0,0,4.818,3.206,3.206,0,0,0,2.377,1.013h5.766a8.954,8.954,0,0,1,6.646,2.814,9.75,9.75,0,0,1,0,13.622,8.952,8.952,0,0,1-6.646,2.814H313.225V40.467h13.359a3.17,3.17,0,0,0,2.355-.991,3.454,3.454,0,0,0,0-4.841,3.171,3.171,0,0,0-2.355-.991h-5.766a8.988,8.988,0,0,1-6.668-2.837,9.372,9.372,0,0,1-2.751-6.8,9.373,9.373,0,0,1,2.751-6.8,8.988,8.988,0,0,1,6.668-2.837h13.667v6.214H320.818A3.206,3.206,0,0,0,318.441,21.6Zm-30.3,25.059h-6.074v-34.2l20.643,21.119V14.35h6.074V48.573L288.136,27.454V46.659ZM232.254,14.373h6.074V46.682h-6.074V14.373ZM219.621,34.884h-8.8v11.8h-6.074V14.373h14.877a9.555,9.555,0,0,1,7.086,3.017,9.961,9.961,0,0,1,2.927,7.227,9.988,9.988,0,0,1-2.927,7.25A9.554,9.554,0,0,1,219.621,34.884Zm2.795-13.1a3.771,3.771,0,0,0-2.795-1.193h-8.8V28.67h8.8a3.77,3.77,0,0,0,2.795-1.193A4.117,4.117,0,0,0,222.416,21.78Zm-26.366,6.3-10.916,11.19L174.2,28.084v18.6h-6.074V13.089l17.012,17.4,16.99-17.4V46.682H196.05v-18.6Zm-38.822,14.86H144.375l-1.628,3.737H136.1l14.7-33.727,14.7,33.727h-6.647ZM150.8,28.219l-3.719,8.533h7.439Zm-23.394,5.426H114.048V46.682h-6.074V14.373h6.074V27.431h13.359V14.373h6.074V46.682h-6.074V33.645ZM94.174,40.467a9.322,9.322,0,0,0,6.889-2.9l4.291,4.39a15.556,15.556,0,0,1-22.338,0,15.737,15.737,0,0,1-4.622-11.415A15.764,15.764,0,0,1,83.016,19.1a15.556,15.556,0,0,1,22.338,0l-4.291,4.39a9.6,9.6,0,0,0-13.755,0,9.709,9.709,0,0,0-2.839,7.047,9.682,9.682,0,0,0,2.839,7.025A9.3,9.3,0,0,0,94.174,40.467ZM78.468,4.111S79.232,0,69.3,0H20.4S9.369,1.475,7.162,14.389s-7.131,37-7.131,37S-1.042,59.61,10.218,59.61H21.423L38.741,13.361,24.479,19.527l4.075-6.167L51.983,2.055S38.064,59.61,25.5,59.61H46.89s4.666,1.85,10.187-13.361S68.281,13.361,68.281,13.361L55.039,18.5l3.056-5.139Zm180.946,8.316c12.763-.193,23,11.436,17.4,24.817-2.434,5.817-7.3,9.227-14.194,10.524-3.11.585-6.162-.587-8.09-1.414-6.95-2.98-13.679-12.119-9.615-22.618a17.88,17.88,0,0,1,9.158-9.9C255.662,13.14,257.748,13.257,259.414,12.427ZM255.6,14.783c-2.582,1.78-7.256,3.215-7.784,6.911q0.764,2.2,1.526,4.4a10.736,10.736,0,0,0,4.579,1.571l6.41-4.712V17.924l-4.121-3.141H255.6Zm10.226,0c-3.018,3.453-4.253.805-4.121,8.168,2.56,0.984,4.106,4.07,6.868,4.712l4.121-1.414q0.762-2.591,1.526-5.183C271.735,18.844,269.967,15.259,265.825,14.783Zm-17.247,12.88c-1,1.23-3.279,1.485-3.358,3.613q0.23,1.492.458,2.984a27.8,27.8,0,0,0,2.595,5.5l4.426,0.628,3.2-3.456q-1.3-3.848-2.594-7.7A10.264,10.264,0,0,0,248.578,27.663Zm24.115,0-3.816,1.256-2.6,7.854c1.205,0.916,2.035,2.942,3.816,3.141l3.968-.785c1.72-1.948,2.656-5.419,2.748-8.953C275.447,29.427,274.454,27.866,272.693,27.663ZM256.972,37.872c-0.924,1.294-3.059,2.3-3.357,4.084q0.3,1.335.61,2.67c2.12,1.886,11.93,2.56,13.584-.157q0.3-1.806.61-3.613l-2.9-2.984h-8.547Z"/>
</svg>
